<svg xmlns="http://www.w3.org/2000/svg" width="14" height="15" viewBox="0 0 14 15"><g><g><path fill="#175f9d" d="M12.238 15.023H1.745a1.76 1.76 0 0 1-1.758-1.755V3.765c0-.97.789-1.76 1.758-1.76h1.28v-1.4c0-.353.288-.641.642-.641h.687c.354 0 .641.288.641.642v1.4h4.033v-1.4c0-.354.287-.642.64-.642h.687c.354 0 .642.288.642.642v1.396h1.28c.97 0 1.728.79 1.728 1.76v9.565c0 1-.674 1.696-1.767 1.696zM1.003 5.005v8.606c0 .218.177.399.398.399h10.974c0 .003-.53.01.001.01s.647-.066.647-.503V5.005zm2.055 5.399h-1.12a.297.297 0 0 1-.3-.299v-1.12c0-.167.133-.3.3-.3h1.12c.165 0 .298.133.298.3v1.12a.297.297 0 0 1-.298.299zm3 0H4.937a.297.297 0 0 1-.298-.299v-1.12c0-.167.132-.3.298-.3h1.12c.166 0 .3.133.3.3v1.12a.298.298 0 0 1-.3.299zm3 0h-1.12a.297.297 0 0 1-.3-.299v-1.12c0-.167.133-.3.3-.3h1.12c.166 0 .298.133.298.3v1.12a.297.297 0 0 1-.298.299zm-6 3h-1.12a.297.297 0 0 1-.3-.299v-1.12c0-.167.133-.3.3-.3h1.12c.165 0 .298.133.298.3v1.12a.297.297 0 0 1-.298.299zm3 0H4.937a.297.297 0 0 1-.298-.299v-1.12c0-.167.132-.3.298-.3h1.12c.166 0 .3.133.3.3v1.12a.297.297 0 0 1-.3.299zm3 0h-1.12a.297.297 0 0 1-.3-.299v-1.12c0-.167.133-.3.3-.3h1.12c.166 0 .298.133.298.3v1.12a.297.297 0 0 1-.298.299zm3-3h-1.12a.297.297 0 0 1-.3-.299v-1.12c0-.167.133-.3.3-.3h1.12c.165 0 .298.133.298.3v1.12a.297.297 0 0 1-.298.299zm-3-3h-1.12a.297.297 0 0 1-.3-.299v-1.12c0-.167.133-.3.3-.3h1.12c.166 0 .298.133.298.3v1.12a.297.297 0 0 1-.298.3zm3 0h-1.12a.297.297 0 0 1-.3-.299v-1.12c0-.167.133-.3.3-.3h1.12c.165 0 .298.133.298.3v1.12a.297.297 0 0 1-.298.3z"/></g></g></svg>